<svg width="214" height="155" viewBox="0 0 214 155" fill="none" xmlns="http://www.w3.org/2000/svg">
<path d="M0.00173591 105.4C0.00173591 114.3 2.20173 122.6 6.60173 130.2C11.0017 137.8 16.9017 143.8 24.5017 148.2C32.1017 152.6 40.3017 154.9 49.3017 154.9H157.402C166.302 154.9 174.602 152.7 182.202 148.2C189.802 143.7 195.802 137.7 200.202 130.2C204.602 122.6 206.902 114.3 206.902 105.4C206.902 99 205.502 92.4 202.702 85.4C210.302 76.1 214.002 65.1 214.002 52.4C214.082 43.2188 211.727 34.1805 207.177 26.2055C202.628 18.2305 196.046 11.6037 188.102 7C180.102 2.3 171.302 0 161.802 0C146.902 0 134.002 5.8 123.102 17.4C115.502 13.1 106.502 10.9 96.2017 10.9C82.1017 10.9 69.7017 15.2 58.9017 23.9C48.1017 32.6 41.2017 43.7 38.1017 57.4C26.9017 59.9 17.8017 65.6 10.7017 74.6C3.68748 83.3242 -0.0929375 94.2061 0.00173591 105.4ZM17.1017 105.4C17.1017 97.1 19.9017 89.9 25.4017 83.8C31.0017 77.7 38.0017 74.2 46.4017 73.2L53.2017 72.9L53.9017 65.7C55.3017 54.9 60.0017 45.8 68.0017 38.6C76.0017 31.3 85.4017 27.7 96.1017 27.7C107.002 27.7 116.602 31.4 124.702 38.7C132.802 46 137.402 55 138.502 65.8L139.502 73.3H157.302C166.102 73.3 173.702 76.5 180.102 82.8C186.502 89.1 189.702 96.7 189.702 105.4C189.702 114.4 186.502 122.1 180.202 128.6C173.902 135.1 166.202 138.3 157.402 138.3H49.3017C40.6017 138.3 33.1017 135.1 26.7017 128.6C20.3017 122 17.1017 114.3 17.1017 105.4ZM137.402 27.1C144.302 20.5 152.402 17.2 161.802 17.2C171.702 17.2 180.102 20.6 187.002 27.5C193.902 34.3 197.402 42.7 197.402 52.6C197.402 58.8 195.702 64.9 192.202 71C182.602 61.3 171.002 56.5 157.302 56.5H154.202C151.502 45.4 145.902 35.6 137.402 27.1Z" fill="#E7E7E7"/>
</svg>
