<svg width="48" height="48" viewBox="0 0 48 48" fill="none" xmlns="http://www.w3.org/2000/svg">
<path d="M26.003 14.018C32.34 14.018 35.935 18.212 36.458 23.278H36.618C40.696 23.278 44.002 26.576 44.002 30.643C44.002 34.711 40.696 38.008 36.618 38.008H15.388C11.31 38.008 8.00405 34.711 8.00405 30.643C8.00405 26.657 11.18 23.41 15.144 23.282L15.549 23.278C16.075 18.179 19.666 14.018 26.003 14.018ZM26.003 16.513C21.743 16.513 18.028 19.961 18.028 24.723C18.028 25.478 17.372 26.07 16.621 26.07H15.2C12.605 26.07 10.502 28.184 10.502 30.792C10.502 33.399 12.605 35.513 15.199 35.513H36.805C39.4 35.513 41.502 33.399 41.502 30.792C41.502 28.184 39.4 26.07 36.806 26.07H35.385C34.634 26.07 33.977 25.478 33.977 24.724C33.977 19.9 30.264 16.513 26.003 16.513ZM20 8C21.5339 7.99926 23.0448 8.37265 24.4017 9.0878C25.7586 9.80295 26.9207 10.8383 27.787 12.104C26.6457 11.9691 25.4927 11.9634 24.35 12.087C23.1425 11.0401 21.5982 10.4633 20 10.462C16.716 10.462 13.917 12.885 13.357 16.158L13.043 17.988C13.0034 18.2208 12.8826 18.432 12.7022 18.5843C12.5217 18.7365 12.2932 18.8201 12.057 18.82H10.11C8.04704 18.82 6.37505 20.53 6.37505 22.641C6.37505 23.747 6.83505 24.743 7.56805 25.441C7.13318 26.0915 6.78239 26.7944 6.52405 27.533C5.44702 26.6918 4.65942 25.5353 4.27113 24.225C3.88284 22.9147 3.91321 21.5158 4.358 20.2236C4.8028 18.9314 5.63984 17.8102 6.75237 17.0165C7.86489 16.2228 9.19741 15.7961 10.564 15.796H10.706C11.0924 13.6117 12.2356 11.6331 13.9351 10.2075C15.6346 8.78197 17.7818 8.00041 20 8Z" fill="#EBEBEB"/>
</svg>
