<svg width="40" height="40" viewBox="0 0 40 40" fill="none" xmlns="http://www.w3.org/2000/svg">
<path d="M19.999 0.00100708C20.689 0.00100708 21.249 0.561007 21.249 1.25101V3.75101C21.249 4.08253 21.1173 4.40047 20.8829 4.63489C20.6485 4.86931 20.3305 5.00101 19.999 5.00101C19.6675 5.00101 19.3495 4.86931 19.1151 4.63489C18.8807 4.40047 18.749 4.08253 18.749 3.75101V1.25101C18.749 0.561007 19.309 0.00100708 19.999 0.00100708ZM20.047 30.021C25.556 30.021 30.022 25.556 30.022 20.047C30.022 14.537 25.556 10.071 20.047 10.071C14.537 10.071 10.071 14.537 10.071 20.047C10.071 25.556 14.537 30.021 20.047 30.021ZM20.047 27.522C19.0654 27.522 18.0933 27.3287 17.1864 26.953C16.2795 26.5774 15.4555 26.0267 14.7614 25.3326C14.0673 24.6385 13.5167 23.8145 13.141 22.9076C12.7653 22.0007 12.572 21.0286 12.572 20.047C12.572 19.0654 12.7653 18.0934 13.141 17.1864C13.5167 16.2795 14.0673 15.4555 14.7614 14.7614C15.4555 14.0673 16.2795 13.5167 17.1864 13.141C18.0933 12.7654 19.0654 12.572 20.047 12.572C22.0295 12.572 23.9308 13.3596 25.3326 14.7614C26.7345 16.1632 27.522 18.0645 27.522 20.047C27.522 22.0295 26.7345 23.9308 25.3326 25.3326C23.9308 26.7345 22.0295 27.522 20.047 27.522ZM38.75 21.252C39.0815 21.252 39.3995 21.1203 39.6339 20.8859C39.8683 20.6515 40 20.3335 40 20.002C40 19.6705 39.8683 19.3525 39.6339 19.1181C39.3995 18.8837 39.0815 18.752 38.75 18.752H36.25C35.9185 18.752 35.6005 18.8837 35.3661 19.1181C35.1317 19.3525 35 19.6705 35 20.002C35 20.3335 35.1317 20.6515 35.3661 20.8859C35.6005 21.1203 35.9185 21.252 36.25 21.252H38.75ZM19.999 35C20.689 35 21.249 35.56 21.249 36.25V38.75C21.249 39.0815 21.1173 39.3995 20.8829 39.6339C20.6485 39.8683 20.3305 40 19.999 40C19.6675 40 19.3495 39.8683 19.1151 39.6339C18.8807 39.3995 18.749 39.0815 18.749 38.75V36.25C18.749 35.56 19.309 35 19.999 35ZM3.75 21.25C4.08152 21.25 4.39946 21.1183 4.63388 20.8839C4.8683 20.6495 5 20.3315 5 20C5 19.6685 4.8683 19.3505 4.63388 19.1161C4.39946 18.8817 4.08152 18.75 3.75 18.75H1.25C0.918479 18.75 0.600537 18.8817 0.366117 19.1161C0.131696 19.3505 0 19.6685 0 20C0 20.3315 0.131696 20.6495 0.366117 20.8839C0.600537 21.1183 0.918479 21.25 1.25 21.25H3.75ZM5.366 5.36501C5.48208 5.2489 5.61989 5.1568 5.77157 5.09396C5.92325 5.03112 6.08582 4.99877 6.25 4.99877C6.41418 4.99877 6.57675 5.03112 6.72843 5.09396C6.88011 5.1568 7.01792 5.2489 7.134 5.36501L9.634 7.86501C9.75009 7.9811 9.84217 8.11891 9.905 8.27059C9.96783 8.42227 10.0002 8.58483 10.0002 8.74901C10.0002 8.91318 9.96783 9.07575 9.905 9.22742C9.84217 9.3791 9.75009 9.51692 9.634 9.63301C9.51791 9.7491 9.38009 9.84118 9.22842 9.90401C9.07674 9.96684 8.91417 9.99917 8.75 9.99917C8.58583 9.99917 8.42326 9.96684 8.27158 9.90401C8.11991 9.84118 7.98209 9.7491 7.866 9.63301L5.366 7.13301C5.24989 7.01693 5.15779 6.87912 5.09495 6.72744C5.03211 6.57576 4.99977 6.41319 4.99977 6.24901C4.99977 6.08483 5.03211 5.92226 5.09495 5.77058C5.15779 5.6189 5.24989 5.48108 5.366 5.36501ZM7.134 34.634C7.01791 34.7501 6.88009 34.8422 6.72842 34.905C6.57674 34.9678 6.41417 35.0002 6.25 35.0002C6.08583 35.0002 5.92326 34.9678 5.77158 34.905C5.61991 34.8422 5.48209 34.7501 5.366 34.634C5.24991 34.5179 5.15782 34.3801 5.095 34.2284C5.03217 34.0767 4.99984 33.9142 4.99984 33.75C4.99984 33.5858 5.03217 33.4233 5.095 33.2716C5.15782 33.1199 5.24991 32.9821 5.366 32.866L7.866 30.366C7.98209 30.2499 8.11991 30.1578 8.27158 30.095C8.42326 30.0322 8.58583 29.9998 8.75 29.9998C8.91417 29.9998 9.07674 30.0322 9.22842 30.095C9.38009 30.1578 9.51791 30.2499 9.634 30.366C9.75009 30.4821 9.84217 30.6199 9.905 30.7716C9.96783 30.9233 10.0002 31.0858 10.0002 31.25C10.0002 31.4142 9.96783 31.5767 9.905 31.7284C9.84217 31.8801 9.75009 32.0179 9.634 32.134L7.134 34.634ZM34.634 5.36501C34.3996 5.13082 34.0818 4.99927 33.7505 4.99927C33.4192 4.99927 33.1014 5.13082 32.867 5.36501L30.367 7.86501C30.1325 8.09946 30.0008 8.41744 30.0008 8.74901C30.0008 9.08057 30.1325 9.39856 30.367 9.63301C30.6015 9.86746 30.9194 9.99917 31.251 9.99917C31.5826 9.99917 31.9005 9.86746 32.135 9.63301L34.635 7.13301C34.7511 7.01693 34.8432 6.87912 34.9061 6.72744C34.9689 6.57576 35.0012 6.41319 35.0012 6.24901C35.0012 6.08483 34.9689 5.92226 34.9061 5.77058C34.8432 5.6189 34.7501 5.48108 34.634 5.36501ZM32.868 34.634C32.9841 34.7501 33.1219 34.8422 33.2736 34.905C33.4253 34.9678 33.5878 35.0002 33.752 35.0002C33.9162 35.0002 34.0787 34.9678 34.2304 34.905C34.3821 34.8422 34.5199 34.7501 34.636 34.634C34.7521 34.5179 34.8442 34.3801 34.907 34.2284C34.9698 34.0767 35.0022 33.9142 35.0022 33.75C35.0022 33.5858 34.9698 33.4233 34.907 33.2716C34.8442 33.1199 34.7521 32.9821 34.636 32.866L32.136 30.366C31.9016 30.1316 31.5836 29.9998 31.252 29.9998C30.9204 29.9998 30.6025 30.1316 30.368 30.366C30.1335 30.6005 30.0018 30.9184 30.0018 31.25C30.0018 31.5816 30.1335 31.8996 30.368 32.134L32.868 34.634Z" fill="#EBEBEB"/>
</svg>
